<mxfile host="app.diagrams.net" agent="Mozilla/5.0 (Windows NT 10.0; Win64; x64) AppleWebKit/537.36 (KHTML, like Gecko) Chrome/133.0.0.0 Safari/537.36 OPR/118.0.0.0" version="26.2.14">
  <diagram name="Página-1" id="bzlhk9wuVAXnp7eVaYsL">
    <mxGraphModel dx="1286" dy="1681" grid="1" gridSize="10" guides="1" tooltips="1" connect="1" arrows="1" fold="1" page="1" pageScale="1" pageWidth="827" pageHeight="1169" math="0" shadow="0">
      <root>
        <mxCell id="0" />
        <mxCell id="1" parent="0" />
        <mxCell id="zPvAeWEstogArS_r4a_O-1" value="" style="html=1;points=[[0,0,0,0,5],[0,1,0,0,-5],[1,0,0,0,5],[1,1,0,0,-5]];perimeter=orthogonalPerimeter;outlineConnect=0;targetShapes=umlLifeline;portConstraint=eastwest;newEdgeStyle={&quot;curved&quot;:0,&quot;rounded&quot;:0};fillColor=light-dark(#A20025,#FF0000);fontColor=#ffffff;strokeColor=#6F0000;" vertex="1" parent="1">
          <mxGeometry x="160" y="120" width="20" height="400" as="geometry" />
        </mxCell>
        <mxCell id="zPvAeWEstogArS_r4a_O-3" value="" style="html=1;points=[[0,0,0,0,5],[0,1,0,0,-5],[1,0,0,0,5],[1,1,0,0,-5]];perimeter=orthogonalPerimeter;outlineConnect=0;targetShapes=umlLifeline;portConstraint=eastwest;newEdgeStyle={&quot;curved&quot;:0,&quot;rounded&quot;:0};fillColor=light-dark(#A20025,#00FF00);fontColor=#ffffff;strokeColor=#6F0000;" vertex="1" parent="1">
          <mxGeometry x="345" y="120" width="20" height="400" as="geometry" />
        </mxCell>
        <mxCell id="zPvAeWEstogArS_r4a_O-4" value="" style="html=1;points=[[0,0,0,0,5],[0,1,0,0,-5],[1,0,0,0,5],[1,1,0,0,-5]];perimeter=orthogonalPerimeter;outlineConnect=0;targetShapes=umlLifeline;portConstraint=eastwest;newEdgeStyle={&quot;curved&quot;:0,&quot;rounded&quot;:0};fillColor=light-dark(#A20025,#0526FF);fontColor=#ffffff;strokeColor=#6F0000;" vertex="1" parent="1">
          <mxGeometry x="523" y="330" width="20" height="140" as="geometry" />
        </mxCell>
        <mxCell id="zPvAeWEstogArS_r4a_O-17" value="Cliente manda e-mail" style="html=1;verticalAlign=bottom;endArrow=block;curved=0;rounded=0;" edge="1" parent="1">
          <mxGeometry y="10" width="80" relative="1" as="geometry">
            <mxPoint x="180" y="160" as="sourcePoint" />
            <mxPoint x="345" y="160" as="targetPoint" />
            <Array as="points">
              <mxPoint x="260" y="160" />
            </Array>
            <mxPoint as="offset" />
          </mxGeometry>
        </mxCell>
        <mxCell id="zPvAeWEstogArS_r4a_O-19" value="Funcionário retorna&lt;div&gt;pacotes disponiveis&lt;/div&gt;" style="html=1;verticalAlign=bottom;endArrow=open;dashed=1;endSize=8;curved=0;rounded=0;" edge="1" parent="1">
          <mxGeometry relative="1" as="geometry">
            <mxPoint x="345" y="200" as="sourcePoint" />
            <mxPoint x="180" y="200" as="targetPoint" />
            <Array as="points">
              <mxPoint x="290" y="200" />
            </Array>
          </mxGeometry>
        </mxCell>
        <mxCell id="zPvAeWEstogArS_r4a_O-20" value="Escolhe pacote de turismo&lt;div&gt;com numero de pessoas&amp;nbsp;&lt;/div&gt;" style="html=1;verticalAlign=bottom;endArrow=block;curved=0;rounded=0;" edge="1" parent="1">
          <mxGeometry width="80" relative="1" as="geometry">
            <mxPoint x="180" y="250" as="sourcePoint" />
            <mxPoint x="345" y="250" as="targetPoint" />
          </mxGeometry>
        </mxCell>
        <mxCell id="zPvAeWEstogArS_r4a_O-21" value="Retorna valor" style="html=1;verticalAlign=bottom;endArrow=open;dashed=1;endSize=8;curved=0;rounded=0;" edge="1" parent="1">
          <mxGeometry relative="1" as="geometry">
            <mxPoint x="345" y="280" as="sourcePoint" />
            <mxPoint x="180" y="280" as="targetPoint" />
            <Array as="points">
              <mxPoint x="270" y="280" />
            </Array>
          </mxGeometry>
        </mxCell>
        <mxCell id="zPvAeWEstogArS_r4a_O-23" value="Cliente realiza pagamento" style="html=1;verticalAlign=bottom;endArrow=block;curved=0;rounded=0;" edge="1" parent="1">
          <mxGeometry width="80" relative="1" as="geometry">
            <mxPoint x="180" y="360" as="sourcePoint" />
            <mxPoint x="345" y="360" as="targetPoint" />
          </mxGeometry>
        </mxCell>
        <mxCell id="zPvAeWEstogArS_r4a_O-24" value="Sistema confirma pagamento" style="html=1;verticalAlign=bottom;endArrow=block;curved=0;rounded=0;" edge="1" parent="1">
          <mxGeometry width="80" relative="1" as="geometry">
            <mxPoint x="365" y="360" as="sourcePoint" />
            <mxPoint x="523" y="360" as="targetPoint" />
            <Array as="points">
              <mxPoint x="450" y="360" />
            </Array>
          </mxGeometry>
        </mxCell>
        <mxCell id="zPvAeWEstogArS_r4a_O-25" value="Retorna confirmação" style="html=1;verticalAlign=bottom;endArrow=open;dashed=1;endSize=8;curved=0;rounded=0;" edge="1" parent="1">
          <mxGeometry relative="1" as="geometry">
            <mxPoint x="523" y="400" as="sourcePoint" />
            <mxPoint x="365" y="400" as="targetPoint" />
          </mxGeometry>
        </mxCell>
        <mxCell id="zPvAeWEstogArS_r4a_O-28" value="Gera NF" style="html=1;verticalAlign=bottom;endArrow=open;dashed=1;endSize=8;curved=0;rounded=0;" edge="1" parent="1">
          <mxGeometry relative="1" as="geometry">
            <mxPoint x="523" y="450.00000000000006" as="sourcePoint" />
            <mxPoint x="365" y="450.00000000000006" as="targetPoint" />
          </mxGeometry>
        </mxCell>
        <mxCell id="zPvAeWEstogArS_r4a_O-29" value="Entrega NF" style="html=1;verticalAlign=bottom;endArrow=open;dashed=1;endSize=8;curved=0;rounded=0;" edge="1" parent="1">
          <mxGeometry relative="1" as="geometry">
            <mxPoint x="345" y="450" as="sourcePoint" />
            <mxPoint x="180.00000000000006" y="450" as="targetPoint" />
          </mxGeometry>
        </mxCell>
        <mxCell id="zPvAeWEstogArS_r4a_O-31" value="Retorna mensagem de&lt;div&gt;agradecimento&lt;/div&gt;" style="html=1;verticalAlign=bottom;endArrow=open;dashed=1;endSize=8;curved=0;rounded=0;" edge="1" parent="1">
          <mxGeometry relative="1" as="geometry">
            <mxPoint x="345" y="490" as="sourcePoint" />
            <mxPoint x="180" y="490" as="targetPoint" />
          </mxGeometry>
        </mxCell>
        <mxCell id="zPvAeWEstogArS_r4a_O-32" value="" style="html=1;points=[[0,0,0,0,5],[0,1,0,0,-5],[1,0,0,0,5],[1,1,0,0,-5]];perimeter=orthogonalPerimeter;outlineConnect=0;targetShapes=umlLifeline;portConstraint=eastwest;newEdgeStyle={&quot;curved&quot;:0,&quot;rounded&quot;:0};fillColor=light-dark(#A20025,#0526FF);fontColor=#ffffff;strokeColor=#6F0000;" vertex="1" parent="1">
          <mxGeometry x="523" y="230" width="20" height="60" as="geometry" />
        </mxCell>
        <mxCell id="zPvAeWEstogArS_r4a_O-33" value="Sistema realiza calculo" style="html=1;verticalAlign=bottom;endArrow=block;curved=0;rounded=0;" edge="1" parent="1">
          <mxGeometry width="80" relative="1" as="geometry">
            <mxPoint x="365" y="250" as="sourcePoint" />
            <mxPoint x="520" y="250.4" as="targetPoint" />
          </mxGeometry>
        </mxCell>
        <mxCell id="zPvAeWEstogArS_r4a_O-34" value="Retorna valor" style="html=1;verticalAlign=bottom;endArrow=open;dashed=1;endSize=8;curved=0;rounded=0;" edge="1" parent="1">
          <mxGeometry relative="1" as="geometry">
            <mxPoint x="520" y="280" as="sourcePoint" />
            <mxPoint x="365" y="280" as="targetPoint" />
          </mxGeometry>
        </mxCell>
        <mxCell id="zPvAeWEstogArS_r4a_O-36" value="Cliente" style="shape=umlActor;verticalLabelPosition=bottom;verticalAlign=top;html=1;" vertex="1" parent="1">
          <mxGeometry x="155" y="-10" width="30" height="60" as="geometry" />
        </mxCell>
        <mxCell id="zPvAeWEstogArS_r4a_O-37" value="Funcionário" style="shape=umlActor;verticalLabelPosition=bottom;verticalAlign=top;html=1;" vertex="1" parent="1">
          <mxGeometry x="340" y="-10" width="30" height="60" as="geometry" />
        </mxCell>
        <mxCell id="zPvAeWEstogArS_r4a_O-39" value="Sistema" style="html=1;whiteSpace=wrap;" vertex="1" parent="1">
          <mxGeometry x="497" y="40" width="72" height="30" as="geometry" />
        </mxCell>
        <mxCell id="zPvAeWEstogArS_r4a_O-40" value="" style="edgeStyle=none;orthogonalLoop=1;jettySize=auto;html=1;rounded=0;dashed=1;endArrow=none;startFill=0;dashPattern=1 1;" edge="1" parent="1" target="zPvAeWEstogArS_r4a_O-1">
          <mxGeometry width="100" relative="1" as="geometry">
            <mxPoint x="170" y="80" as="sourcePoint" />
            <mxPoint x="220" y="80" as="targetPoint" />
            <Array as="points" />
          </mxGeometry>
        </mxCell>
        <mxCell id="zPvAeWEstogArS_r4a_O-41" value="" style="edgeStyle=none;orthogonalLoop=1;jettySize=auto;html=1;rounded=0;dashed=1;dashPattern=1 1;endArrow=none;startFill=0;" edge="1" parent="1" target="zPvAeWEstogArS_r4a_O-3">
          <mxGeometry width="100" relative="1" as="geometry">
            <mxPoint x="355" y="80" as="sourcePoint" />
            <mxPoint x="410" y="80" as="targetPoint" />
            <Array as="points" />
          </mxGeometry>
        </mxCell>
        <mxCell id="zPvAeWEstogArS_r4a_O-42" value="" style="edgeStyle=none;orthogonalLoop=1;jettySize=auto;html=1;rounded=0;dashed=1;dashPattern=1 1;endArrow=none;startFill=0;" edge="1" parent="1" target="zPvAeWEstogArS_r4a_O-32">
          <mxGeometry width="100" relative="1" as="geometry">
            <mxPoint x="533" y="80" as="sourcePoint" />
            <mxPoint x="590" y="90" as="targetPoint" />
            <Array as="points" />
          </mxGeometry>
        </mxCell>
        <mxCell id="zPvAeWEstogArS_r4a_O-46" value="" style="edgeStyle=none;orthogonalLoop=1;jettySize=auto;html=1;rounded=0;dashed=1;dashPattern=1 1;endArrow=none;startFill=0;" edge="1" parent="1">
          <mxGeometry width="100" relative="1" as="geometry">
            <mxPoint x="532.68" y="290" as="sourcePoint" />
            <mxPoint x="533" y="330" as="targetPoint" />
            <Array as="points" />
          </mxGeometry>
        </mxCell>
      </root>
    </mxGraphModel>
  </diagram>
</mxfile>
